<mxfile host="Electron" agent="Mozilla/5.0 (Windows NT 10.0; Win64; x64) AppleWebKit/537.36 (KHTML, like Gecko) draw.io/24.7.8 Chrome/128.0.6613.36 Electron/32.0.1 Safari/537.36" version="24.7.8" pages="2">
  <diagram id="R2lEEEUBdFMjLlhIrx00" name="Page-1">
    <mxGraphModel dx="2921" dy="1923" grid="1" gridSize="10" guides="1" tooltips="1" connect="1" arrows="1" fold="1" page="1" pageScale="1" pageWidth="850" pageHeight="1100" math="0" shadow="0" extFonts="Permanent Marker^https://fonts.googleapis.com/css?family=Permanent+Marker">
      <root>
        <mxCell id="0" />
        <mxCell id="1" parent="0" />
        <mxCell id="4sxGNiX7ziTckChL0p4E-5" value="Rooms" style="shape=ext;margin=3;double=1;whiteSpace=wrap;html=1;align=center;fontStyle=1;fontSize=13;" parent="1" vertex="1">
          <mxGeometry x="-820" y="490" width="100" height="40" as="geometry" />
        </mxCell>
        <mxCell id="4sxGNiX7ziTckChL0p4E-6" value="Equipment" style="whiteSpace=wrap;html=1;align=center;fontSize=13;fontStyle=1" parent="1" vertex="1">
          <mxGeometry x="20" y="70" width="100" height="40" as="geometry" />
        </mxCell>
        <mxCell id="106LG4-2d2CXA7pPxhtT-7" value="" style="group;fontSize=13;fontStyle=1" parent="1" vertex="1" connectable="0">
          <mxGeometry x="-380" y="-240" width="590" height="250" as="geometry" />
        </mxCell>
        <mxCell id="bqqFAHsnTS03EGey6QiC-1" value="&lt;div style=&quot;font-size: 13px;&quot;&gt;&lt;font style=&quot;vertical-align: inherit; font-size: 13px;&quot;&gt;&lt;font style=&quot;vertical-align: inherit; font-size: 13px;&quot;&gt;&lt;font style=&quot;vertical-align: inherit; font-size: 13px;&quot;&gt;&lt;font style=&quot;vertical-align: inherit; font-size: 13px;&quot;&gt;Doctors&lt;/font&gt;&lt;/font&gt;&lt;/font&gt;&lt;/font&gt;&lt;/div&gt;" style="whiteSpace=wrap;html=1;align=center;fontSize=13;fontStyle=1" parent="106LG4-2d2CXA7pPxhtT-7" vertex="1">
          <mxGeometry x="170" y="120" width="100" height="40" as="geometry" />
        </mxCell>
        <mxCell id="4sxGNiX7ziTckChL0p4E-13" value="name" style="ellipse;whiteSpace=wrap;html=1;align=center;fontSize=13;fontStyle=1" parent="106LG4-2d2CXA7pPxhtT-7" vertex="1">
          <mxGeometry x="115" width="100" height="40" as="geometry" />
        </mxCell>
        <mxCell id="4sxGNiX7ziTckChL0p4E-14" value="specialty" style="ellipse;whiteSpace=wrap;html=1;align=center;fontSize=13;fontStyle=1" parent="106LG4-2d2CXA7pPxhtT-7" vertex="1">
          <mxGeometry x="230" width="100" height="40" as="geometry" />
        </mxCell>
        <mxCell id="4sxGNiX7ziTckChL0p4E-15" value="experience" style="ellipse;whiteSpace=wrap;html=1;align=center;fontSize=13;fontStyle=1" parent="106LG4-2d2CXA7pPxhtT-7" vertex="1">
          <mxGeometry x="300" y="50" width="100" height="40" as="geometry" />
        </mxCell>
        <mxCell id="4sxGNiX7ziTckChL0p4E-32" value="" style="endArrow=none;html=1;rounded=0;entryX=0.5;entryY=1;entryDx=0;entryDy=0;exitX=0.5;exitY=0;exitDx=0;exitDy=0;fontSize=13;fontStyle=1" parent="106LG4-2d2CXA7pPxhtT-7" source="bqqFAHsnTS03EGey6QiC-1" target="4sxGNiX7ziTckChL0p4E-13" edge="1">
          <mxGeometry relative="1" as="geometry">
            <mxPoint x="95" y="120" as="sourcePoint" />
            <mxPoint x="275" y="80" as="targetPoint" />
          </mxGeometry>
        </mxCell>
        <mxCell id="4sxGNiX7ziTckChL0p4E-33" value="" style="endArrow=none;html=1;rounded=0;entryX=0.5;entryY=1;entryDx=0;entryDy=0;exitX=0.5;exitY=0;exitDx=0;exitDy=0;fontSize=13;fontStyle=1" parent="106LG4-2d2CXA7pPxhtT-7" source="bqqFAHsnTS03EGey6QiC-1" target="4sxGNiX7ziTckChL0p4E-14" edge="1">
          <mxGeometry relative="1" as="geometry">
            <mxPoint x="95" y="120" as="sourcePoint" />
            <mxPoint x="445" y="120" as="targetPoint" />
          </mxGeometry>
        </mxCell>
        <mxCell id="4sxGNiX7ziTckChL0p4E-34" value="" style="endArrow=none;html=1;rounded=0;exitX=0.5;exitY=0;exitDx=0;exitDy=0;entryX=0.5;entryY=1;entryDx=0;entryDy=0;fontSize=13;fontStyle=1" parent="106LG4-2d2CXA7pPxhtT-7" source="bqqFAHsnTS03EGey6QiC-1" target="4sxGNiX7ziTckChL0p4E-15" edge="1">
          <mxGeometry relative="1" as="geometry">
            <mxPoint x="375" y="120" as="sourcePoint" />
            <mxPoint x="535" y="120" as="targetPoint" />
          </mxGeometry>
        </mxCell>
        <mxCell id="106LG4-2d2CXA7pPxhtT-30" value="Work" style="shape=rhombus;perimeter=rhombusPerimeter;whiteSpace=wrap;html=1;align=center;fontSize=13;fontStyle=1" parent="106LG4-2d2CXA7pPxhtT-7" vertex="1">
          <mxGeometry x="390" y="110" width="120" height="60" as="geometry" />
        </mxCell>
        <mxCell id="106LG4-2d2CXA7pPxhtT-33" value="" style="endArrow=none;html=1;rounded=0;entryX=0;entryY=0.5;entryDx=0;entryDy=0;fontSize=13;fontStyle=1" parent="106LG4-2d2CXA7pPxhtT-7" target="106LG4-2d2CXA7pPxhtT-30" edge="1">
          <mxGeometry relative="1" as="geometry">
            <mxPoint x="270" y="139.5" as="sourcePoint" />
            <mxPoint x="430" y="139.5" as="targetPoint" />
          </mxGeometry>
        </mxCell>
        <mxCell id="106LG4-2d2CXA7pPxhtT-35" value="N" style="edgeLabel;html=1;align=center;verticalAlign=middle;resizable=0;points=[];fontSize=18;fontStyle=1" parent="106LG4-2d2CXA7pPxhtT-33" vertex="1" connectable="0">
          <mxGeometry x="0.0235" relative="1" as="geometry">
            <mxPoint x="13" as="offset" />
          </mxGeometry>
        </mxCell>
        <mxCell id="106LG4-2d2CXA7pPxhtT-73" value="" style="group" parent="106LG4-2d2CXA7pPxhtT-7" vertex="1" connectable="0">
          <mxGeometry x="-170" y="120" width="350" height="130" as="geometry" />
        </mxCell>
        <mxCell id="106LG4-2d2CXA7pPxhtT-53" value="prescription_id" style="ellipse;whiteSpace=wrap;html=1;align=center;fontStyle=5;fontSize=13;" parent="106LG4-2d2CXA7pPxhtT-73" vertex="1">
          <mxGeometry y="90" width="100" height="40" as="geometry" />
        </mxCell>
        <mxCell id="106LG4-2d2CXA7pPxhtT-54" value="date" style="ellipse;whiteSpace=wrap;html=1;align=center;fontSize=13;fontStyle=1" parent="106LG4-2d2CXA7pPxhtT-73" vertex="1">
          <mxGeometry x="40" y="40" width="100" height="40" as="geometry" />
        </mxCell>
        <mxCell id="106LG4-2d2CXA7pPxhtT-55" value="doctor" style="ellipse;whiteSpace=wrap;html=1;align=center;fontSize=13;fontStyle=1" parent="106LG4-2d2CXA7pPxhtT-73" vertex="1">
          <mxGeometry x="120" width="100" height="40" as="geometry" />
        </mxCell>
        <mxCell id="106LG4-2d2CXA7pPxhtT-56" value="patient" style="ellipse;whiteSpace=wrap;html=1;align=center;fontSize=13;fontStyle=1" parent="106LG4-2d2CXA7pPxhtT-73" vertex="1">
          <mxGeometry x="200" y="40" width="100" height="40" as="geometry" />
        </mxCell>
        <mxCell id="106LG4-2d2CXA7pPxhtT-58" value="medication" style="ellipse;whiteSpace=wrap;html=1;align=center;fontSize=13;fontStyle=1" parent="106LG4-2d2CXA7pPxhtT-73" vertex="1">
          <mxGeometry x="250" y="90" width="100" height="40" as="geometry" />
        </mxCell>
        <mxCell id="4sxGNiX7ziTckChL0p4E-16" value="department_id" style="ellipse;whiteSpace=wrap;html=1;align=center;fontStyle=5;container=0;fontSize=13;" parent="106LG4-2d2CXA7pPxhtT-7" vertex="1">
          <mxGeometry x="490" y="50" width="100" height="40" as="geometry" />
        </mxCell>
        <mxCell id="4sxGNiX7ziTckChL0p4E-1" value="&lt;font style=&quot;vertical-align: inherit; font-size: 13px;&quot;&gt;&lt;font style=&quot;vertical-align: inherit; font-size: 13px;&quot;&gt;Departments&lt;/font&gt;&lt;/font&gt;" style="whiteSpace=wrap;html=1;align=center;container=0;fontSize=13;fontStyle=1" parent="1" vertex="1">
          <mxGeometry x="250" y="-120" width="100" height="40" as="geometry" />
        </mxCell>
        <mxCell id="4sxGNiX7ziTckChL0p4E-18" value="name" style="ellipse;whiteSpace=wrap;html=1;align=center;container=0;fontSize=13;fontStyle=1" parent="1" vertex="1">
          <mxGeometry x="200" y="-240" width="100" height="40" as="geometry" />
        </mxCell>
        <mxCell id="4sxGNiX7ziTckChL0p4E-19" value="description" style="ellipse;whiteSpace=wrap;html=1;align=center;container=0;fontSize=13;fontStyle=1" parent="1" vertex="1">
          <mxGeometry x="330" y="-240" width="100" height="40" as="geometry" />
        </mxCell>
        <mxCell id="4sxGNiX7ziTckChL0p4E-20" value="location" style="ellipse;whiteSpace=wrap;html=1;align=center;container=0;fontSize=13;fontStyle=1" parent="1" vertex="1">
          <mxGeometry x="420" y="-190" width="100" height="40" as="geometry" />
        </mxCell>
        <mxCell id="106LG4-2d2CXA7pPxhtT-22" value="" style="endArrow=none;html=1;rounded=0;entryX=0.5;entryY=0;entryDx=0;entryDy=0;exitX=0.5;exitY=1;exitDx=0;exitDy=0;fontSize=13;fontStyle=1" parent="1" source="4sxGNiX7ziTckChL0p4E-16" target="4sxGNiX7ziTckChL0p4E-1" edge="1">
          <mxGeometry relative="1" as="geometry">
            <mxPoint x="180" y="-200" as="sourcePoint" />
            <mxPoint x="280" y="-130" as="targetPoint" />
          </mxGeometry>
        </mxCell>
        <mxCell id="106LG4-2d2CXA7pPxhtT-23" value="" style="endArrow=none;html=1;rounded=0;exitX=0.5;exitY=1;exitDx=0;exitDy=0;fontSize=13;fontStyle=1;entryX=0.5;entryY=0;entryDx=0;entryDy=0;" parent="1" source="4sxGNiX7ziTckChL0p4E-18" target="4sxGNiX7ziTckChL0p4E-1" edge="1">
          <mxGeometry relative="1" as="geometry">
            <mxPoint x="330" y="-190" as="sourcePoint" />
            <mxPoint x="390" y="-120" as="targetPoint" />
          </mxGeometry>
        </mxCell>
        <mxCell id="106LG4-2d2CXA7pPxhtT-24" value="" style="endArrow=none;html=1;rounded=0;exitX=0.5;exitY=0;exitDx=0;exitDy=0;entryX=0.5;entryY=1;entryDx=0;entryDy=0;fontSize=13;fontStyle=1" parent="1" source="4sxGNiX7ziTckChL0p4E-1" target="4sxGNiX7ziTckChL0p4E-19" edge="1">
          <mxGeometry relative="1" as="geometry">
            <mxPoint x="470" y="-170" as="sourcePoint" />
            <mxPoint x="630" y="-170" as="targetPoint" />
          </mxGeometry>
        </mxCell>
        <mxCell id="106LG4-2d2CXA7pPxhtT-28" value="" style="endArrow=none;html=1;rounded=0;exitX=0.5;exitY=0;exitDx=0;exitDy=0;entryX=0.5;entryY=1;entryDx=0;entryDy=0;fontSize=13;fontStyle=1" parent="1" source="4sxGNiX7ziTckChL0p4E-1" target="4sxGNiX7ziTckChL0p4E-20" edge="1">
          <mxGeometry relative="1" as="geometry">
            <mxPoint x="480" y="-130" as="sourcePoint" />
            <mxPoint x="640" y="-130" as="targetPoint" />
          </mxGeometry>
        </mxCell>
        <mxCell id="106LG4-2d2CXA7pPxhtT-29" value="" style="group;fontSize=13;fontStyle=1" parent="1" vertex="1" connectable="0">
          <mxGeometry x="-840" y="-290" width="615" height="340" as="geometry" />
        </mxCell>
        <mxCell id="4sxGNiX7ziTckChL0p4E-2" value="Patients" style="whiteSpace=wrap;html=1;align=center;fontSize=13;fontStyle=1" parent="106LG4-2d2CXA7pPxhtT-29" vertex="1">
          <mxGeometry x="210" y="170" width="100" height="40" as="geometry" />
        </mxCell>
        <mxCell id="106LG4-2d2CXA7pPxhtT-3" value="address" style="ellipse;whiteSpace=wrap;html=1;align=center;fontSize=13;fontStyle=1" parent="106LG4-2d2CXA7pPxhtT-29" vertex="1">
          <mxGeometry x="330" y="50" width="100" height="40" as="geometry" />
        </mxCell>
        <mxCell id="106LG4-2d2CXA7pPxhtT-15" value="" style="endArrow=none;html=1;rounded=0;exitX=0.5;exitY=0;exitDx=0;exitDy=0;entryX=0.5;entryY=1;entryDx=0;entryDy=0;fontSize=13;fontStyle=1" parent="106LG4-2d2CXA7pPxhtT-29" source="4sxGNiX7ziTckChL0p4E-2" target="106LG4-2d2CXA7pPxhtT-3" edge="1">
          <mxGeometry relative="1" as="geometry">
            <mxPoint x="180" y="130" as="sourcePoint" />
            <mxPoint x="340" y="130" as="targetPoint" />
          </mxGeometry>
        </mxCell>
        <mxCell id="106LG4-2d2CXA7pPxhtT-37" value="phone number" style="ellipse;shape=doubleEllipse;margin=3;whiteSpace=wrap;html=1;align=center;fontSize=13;fontStyle=1" parent="106LG4-2d2CXA7pPxhtT-29" vertex="1">
          <mxGeometry x="360" y="100" width="100" height="40" as="geometry" />
        </mxCell>
        <mxCell id="106LG4-2d2CXA7pPxhtT-38" value="" style="endArrow=none;html=1;rounded=0;entryX=0.5;entryY=1;entryDx=0;entryDy=0;exitX=0.5;exitY=0;exitDx=0;exitDy=0;fontSize=13;fontStyle=1" parent="106LG4-2d2CXA7pPxhtT-29" source="4sxGNiX7ziTckChL0p4E-2" target="106LG4-2d2CXA7pPxhtT-37" edge="1">
          <mxGeometry relative="1" as="geometry">
            <mxPoint x="310" y="130" as="sourcePoint" />
            <mxPoint x="700" y="160" as="targetPoint" />
          </mxGeometry>
        </mxCell>
        <mxCell id="106LG4-2d2CXA7pPxhtT-6" value="birth" style="ellipse;whiteSpace=wrap;html=1;align=center;fontSize=13;fontStyle=1" parent="106LG4-2d2CXA7pPxhtT-29" vertex="1">
          <mxGeometry x="150" width="100" height="40" as="geometry" />
        </mxCell>
        <mxCell id="106LG4-2d2CXA7pPxhtT-13" value="" style="endArrow=none;html=1;rounded=0;entryX=0.5;entryY=0;entryDx=0;entryDy=0;exitX=0.5;exitY=1;exitDx=0;exitDy=0;fontSize=13;fontStyle=1" parent="106LG4-2d2CXA7pPxhtT-29" source="106LG4-2d2CXA7pPxhtT-6" target="4sxGNiX7ziTckChL0p4E-2" edge="1">
          <mxGeometry relative="1" as="geometry">
            <mxPoint x="120" y="130" as="sourcePoint" />
            <mxPoint x="280" y="130" as="targetPoint" />
          </mxGeometry>
        </mxCell>
        <mxCell id="106LG4-2d2CXA7pPxhtT-74" value="&lt;span style=&quot;font-size: 13px;&quot;&gt;&lt;b&gt;Occupies&lt;/b&gt;&lt;/span&gt;" style="shape=rhombus;perimeter=rhombusPerimeter;whiteSpace=wrap;html=1;align=center;" parent="106LG4-2d2CXA7pPxhtT-29" vertex="1">
          <mxGeometry x="10" y="160" width="120" height="60" as="geometry" />
        </mxCell>
        <mxCell id="106LG4-2d2CXA7pPxhtT-78" value="N" style="endArrow=none;html=1;rounded=0;exitX=1;exitY=0.5;exitDx=0;exitDy=0;entryX=0;entryY=0.5;entryDx=0;entryDy=0;" parent="106LG4-2d2CXA7pPxhtT-29" source="106LG4-2d2CXA7pPxhtT-74" target="4sxGNiX7ziTckChL0p4E-2" edge="1">
          <mxGeometry relative="1" as="geometry">
            <mxPoint x="130" y="270" as="sourcePoint" />
            <mxPoint x="290" y="270" as="targetPoint" />
          </mxGeometry>
        </mxCell>
        <mxCell id="106LG4-2d2CXA7pPxhtT-118" value="N" style="edgeLabel;html=1;align=center;verticalAlign=middle;resizable=0;points=[];fontSize=18;fontStyle=1" parent="106LG4-2d2CXA7pPxhtT-78" vertex="1" connectable="0">
          <mxGeometry x="0.0071" y="-1" relative="1" as="geometry">
            <mxPoint as="offset" />
          </mxGeometry>
        </mxCell>
        <mxCell id="4sxGNiX7ziTckChL0p4E-12" value="staff_id" style="ellipse;whiteSpace=wrap;html=1;align=center;fontStyle=5;fontSize=13;" parent="106LG4-2d2CXA7pPxhtT-29" vertex="1">
          <mxGeometry x="500" y="100" width="100" height="40" as="geometry" />
        </mxCell>
        <mxCell id="106LG4-2d2CXA7pPxhtT-2" value="name" style="ellipse;whiteSpace=wrap;html=1;align=center;fontSize=13;fontStyle=1" parent="106LG4-2d2CXA7pPxhtT-29" vertex="1">
          <mxGeometry x="270" width="100" height="40" as="geometry" />
        </mxCell>
        <mxCell id="106LG4-2d2CXA7pPxhtT-12" value="" style="endArrow=none;html=1;rounded=0;entryX=0.5;entryY=0;entryDx=0;entryDy=0;exitX=0.5;exitY=1;exitDx=0;exitDy=0;fontSize=13;fontStyle=1" parent="106LG4-2d2CXA7pPxhtT-29" source="106LG4-2d2CXA7pPxhtT-2" target="4sxGNiX7ziTckChL0p4E-2" edge="1">
          <mxGeometry relative="1" as="geometry">
            <mxPoint x="220" y="99" as="sourcePoint" />
            <mxPoint x="340" y="110" as="targetPoint" />
          </mxGeometry>
        </mxCell>
        <mxCell id="106LG4-2d2CXA7pPxhtT-5" value="age" style="ellipse;whiteSpace=wrap;html=1;align=center;fontSize=13;fontStyle=1" parent="106LG4-2d2CXA7pPxhtT-29" vertex="1">
          <mxGeometry x="60" y="50" width="100" height="40" as="geometry" />
        </mxCell>
        <mxCell id="106LG4-2d2CXA7pPxhtT-14" value="" style="endArrow=none;html=1;rounded=0;entryX=0.5;entryY=0;entryDx=0;entryDy=0;exitX=1;exitY=0.5;exitDx=0;exitDy=0;fontSize=13;fontStyle=1" parent="106LG4-2d2CXA7pPxhtT-29" source="106LG4-2d2CXA7pPxhtT-5" target="4sxGNiX7ziTckChL0p4E-2" edge="1">
          <mxGeometry relative="1" as="geometry">
            <mxPoint x="80" y="180" as="sourcePoint" />
            <mxPoint x="240" y="180" as="targetPoint" />
          </mxGeometry>
        </mxCell>
        <mxCell id="106LG4-2d2CXA7pPxhtT-11" value="SSN" style="ellipse;whiteSpace=wrap;html=1;align=center;fontStyle=5;fontSize=13;" parent="106LG4-2d2CXA7pPxhtT-29" vertex="1">
          <mxGeometry x="40" y="100" width="100" height="40" as="geometry" />
        </mxCell>
        <mxCell id="106LG4-2d2CXA7pPxhtT-31" value="" style="shape=link;html=1;rounded=0;exitX=1;exitY=0.5;exitDx=0;exitDy=0;entryX=0;entryY=0.5;entryDx=0;entryDy=0;fontSize=13;fontStyle=1" parent="1" source="106LG4-2d2CXA7pPxhtT-30" target="4sxGNiX7ziTckChL0p4E-1" edge="1">
          <mxGeometry relative="1" as="geometry">
            <mxPoint x="180" y="-100" as="sourcePoint" />
            <mxPoint x="340" y="-100" as="targetPoint" />
          </mxGeometry>
        </mxCell>
        <mxCell id="106LG4-2d2CXA7pPxhtT-32" value="" style="resizable=0;html=1;whiteSpace=wrap;align=right;verticalAlign=bottom;fontSize=13;fontStyle=1" parent="106LG4-2d2CXA7pPxhtT-31" connectable="0" vertex="1">
          <mxGeometry x="1" relative="1" as="geometry" />
        </mxCell>
        <mxCell id="106LG4-2d2CXA7pPxhtT-36" value="1" style="edgeLabel;html=1;align=center;verticalAlign=middle;resizable=0;points=[];fontSize=18;fontStyle=1" parent="106LG4-2d2CXA7pPxhtT-31" vertex="1" connectable="0">
          <mxGeometry x="0.1125" y="2" relative="1" as="geometry">
            <mxPoint as="offset" />
          </mxGeometry>
        </mxCell>
        <mxCell id="106LG4-2d2CXA7pPxhtT-51" value="Have" style="shape=rhombus;perimeter=rhombusPerimeter;whiteSpace=wrap;html=1;align=center;fontSize=13;fontStyle=1" parent="1" vertex="1">
          <mxGeometry x="-435" y="180" width="120" height="60" as="geometry" />
        </mxCell>
        <mxCell id="106LG4-2d2CXA7pPxhtT-43" value="Prescribe" style="shape=rhombus;perimeter=rhombusPerimeter;whiteSpace=wrap;html=1;align=center;fontSize=13;fontStyle=1" parent="1" vertex="1">
          <mxGeometry x="-220" y="60" width="120" height="60" as="geometry" />
        </mxCell>
        <mxCell id="4sxGNiX7ziTckChL0p4E-27" value="price" style="ellipse;whiteSpace=wrap;html=1;align=center;container=0;fontSize=13;fontStyle=1" parent="1" vertex="1">
          <mxGeometry x="-182.5" y="390" width="100" height="40" as="geometry" />
        </mxCell>
        <mxCell id="4sxGNiX7ziTckChL0p4E-46" value="" style="endArrow=none;html=1;rounded=0;exitX=0.5;exitY=0;exitDx=0;exitDy=0;entryX=0.5;entryY=1;entryDx=0;entryDy=0;fontSize=13;fontStyle=1" parent="1" source="4sxGNiX7ziTckChL0p4E-27" target="4sxGNiX7ziTckChL0p4E-3" edge="1">
          <mxGeometry relative="1" as="geometry">
            <mxPoint x="-235" y="310" as="sourcePoint" />
            <mxPoint x="-365" y="350" as="targetPoint" />
          </mxGeometry>
        </mxCell>
        <mxCell id="4sxGNiX7ziTckChL0p4E-3" value="Medications" style="whiteSpace=wrap;html=1;align=center;container=0;fontSize=13;fontStyle=1" parent="1" vertex="1">
          <mxGeometry x="-425" y="310" width="100" height="40" as="geometry" />
        </mxCell>
        <mxCell id="4sxGNiX7ziTckChL0p4E-45" value="" style="endArrow=none;html=1;rounded=0;exitX=0.5;exitY=0;exitDx=0;exitDy=0;entryX=0.5;entryY=1;entryDx=0;entryDy=0;fontSize=13;fontStyle=1" parent="1" source="4sxGNiX7ziTckChL0p4E-26" target="4sxGNiX7ziTckChL0p4E-3" edge="1">
          <mxGeometry relative="1" as="geometry">
            <mxPoint x="-320" y="270" as="sourcePoint" />
            <mxPoint x="-370" y="340" as="targetPoint" />
          </mxGeometry>
        </mxCell>
        <mxCell id="4sxGNiX7ziTckChL0p4E-24" value="&amp;nbsp;medication_id" style="ellipse;whiteSpace=wrap;html=1;align=center;fontStyle=5;container=0;fontSize=13;" parent="1" vertex="1">
          <mxGeometry x="-640" y="390" width="100" height="40" as="geometry" />
        </mxCell>
        <mxCell id="4sxGNiX7ziTckChL0p4E-43" value="" style="endArrow=none;html=1;rounded=0;exitX=0.5;exitY=0;exitDx=0;exitDy=0;entryX=0.5;entryY=1;entryDx=0;entryDy=0;fontSize=13;fontStyle=1" parent="1" source="4sxGNiX7ziTckChL0p4E-24" target="4sxGNiX7ziTckChL0p4E-3" edge="1">
          <mxGeometry relative="1" as="geometry">
            <mxPoint x="-480" y="280" as="sourcePoint" />
            <mxPoint x="-420" y="330" as="targetPoint" />
          </mxGeometry>
        </mxCell>
        <mxCell id="4sxGNiX7ziTckChL0p4E-25" value="name" style="ellipse;whiteSpace=wrap;html=1;align=center;container=0;fontSize=13;fontStyle=1" parent="1" vertex="1">
          <mxGeometry x="-495" y="390" width="100" height="40" as="geometry" />
        </mxCell>
        <mxCell id="4sxGNiX7ziTckChL0p4E-44" value="" style="endArrow=none;html=1;rounded=0;exitX=0.5;exitY=0;exitDx=0;exitDy=0;fontSize=13;fontStyle=1" parent="1" source="4sxGNiX7ziTckChL0p4E-25" edge="1">
          <mxGeometry relative="1" as="geometry">
            <mxPoint x="-440" y="260" as="sourcePoint" />
            <mxPoint x="-370" y="350" as="targetPoint" />
          </mxGeometry>
        </mxCell>
        <mxCell id="4sxGNiX7ziTckChL0p4E-26" value="description" style="ellipse;whiteSpace=wrap;html=1;align=center;container=0;fontSize=13;fontStyle=1" parent="1" vertex="1">
          <mxGeometry x="-337.5" y="390" width="100" height="40" as="geometry" />
        </mxCell>
        <mxCell id="106LG4-2d2CXA7pPxhtT-50" value="Received" style="shape=rhombus;perimeter=rhombusPerimeter;whiteSpace=wrap;html=1;align=center;fontSize=13;fontStyle=1" parent="1" vertex="1">
          <mxGeometry x="-640" y="60" width="120" height="60" as="geometry" />
        </mxCell>
        <mxCell id="4sxGNiX7ziTckChL0p4E-4" value="Prescriptions" style="whiteSpace=wrap;html=1;align=center;fontSize=13;fontStyle=1" parent="1" vertex="1">
          <mxGeometry x="-425" y="70" width="100" height="40" as="geometry" />
        </mxCell>
        <mxCell id="106LG4-2d2CXA7pPxhtT-60" value="" style="endArrow=none;html=1;rounded=0;exitX=0.5;exitY=0;exitDx=0;exitDy=0;entryX=0.5;entryY=1;entryDx=0;entryDy=0;fontSize=13;fontStyle=1" parent="1" source="106LG4-2d2CXA7pPxhtT-50" target="4sxGNiX7ziTckChL0p4E-2" edge="1">
          <mxGeometry relative="1" as="geometry">
            <mxPoint x="-800" y="40" as="sourcePoint" />
            <mxPoint x="-580" y="-80" as="targetPoint" />
          </mxGeometry>
        </mxCell>
        <mxCell id="106LG4-2d2CXA7pPxhtT-101" value="1" style="edgeLabel;html=1;align=center;verticalAlign=middle;resizable=0;points=[];fontSize=18;fontStyle=1" parent="106LG4-2d2CXA7pPxhtT-60" vertex="1" connectable="0">
          <mxGeometry x="-0.1728" y="4" relative="1" as="geometry">
            <mxPoint y="1" as="offset" />
          </mxGeometry>
        </mxCell>
        <mxCell id="106LG4-2d2CXA7pPxhtT-61" value="" style="endArrow=none;html=1;rounded=0;exitX=1;exitY=0.5;exitDx=0;exitDy=0;entryX=0;entryY=0.5;entryDx=0;entryDy=0;fontSize=13;fontStyle=1" parent="1" source="106LG4-2d2CXA7pPxhtT-50" target="4sxGNiX7ziTckChL0p4E-4" edge="1">
          <mxGeometry relative="1" as="geometry">
            <mxPoint x="-500" y="150" as="sourcePoint" />
            <mxPoint x="-340" y="150" as="targetPoint" />
          </mxGeometry>
        </mxCell>
        <mxCell id="106LG4-2d2CXA7pPxhtT-102" value="N" style="edgeLabel;html=1;align=center;verticalAlign=middle;resizable=0;points=[];fontSize=18;fontStyle=1" parent="106LG4-2d2CXA7pPxhtT-61" vertex="1" connectable="0">
          <mxGeometry x="-0.0917" y="1" relative="1" as="geometry">
            <mxPoint as="offset" />
          </mxGeometry>
        </mxCell>
        <mxCell id="106LG4-2d2CXA7pPxhtT-62" value="" style="endArrow=none;html=1;rounded=0;exitX=1;exitY=0.5;exitDx=0;exitDy=0;entryX=0;entryY=0.5;entryDx=0;entryDy=0;fontSize=13;fontStyle=1" parent="1" source="4sxGNiX7ziTckChL0p4E-4" target="106LG4-2d2CXA7pPxhtT-43" edge="1">
          <mxGeometry relative="1" as="geometry">
            <mxPoint x="-300" y="160" as="sourcePoint" />
            <mxPoint x="-140" y="160" as="targetPoint" />
          </mxGeometry>
        </mxCell>
        <mxCell id="106LG4-2d2CXA7pPxhtT-100" value="N" style="edgeLabel;html=1;align=center;verticalAlign=middle;resizable=0;points=[];fontSize=18;fontStyle=1" parent="106LG4-2d2CXA7pPxhtT-62" vertex="1" connectable="0">
          <mxGeometry x="0.0531" y="5" relative="1" as="geometry">
            <mxPoint as="offset" />
          </mxGeometry>
        </mxCell>
        <mxCell id="106LG4-2d2CXA7pPxhtT-63" value="" style="endArrow=none;html=1;rounded=0;exitX=0.5;exitY=0;exitDx=0;exitDy=0;entryX=0.5;entryY=1;entryDx=0;entryDy=0;fontSize=13;fontStyle=1" parent="1" source="106LG4-2d2CXA7pPxhtT-43" target="bqqFAHsnTS03EGey6QiC-1" edge="1">
          <mxGeometry relative="1" as="geometry">
            <mxPoint x="-70" y="20" as="sourcePoint" />
            <mxPoint x="90" y="20" as="targetPoint" />
          </mxGeometry>
        </mxCell>
        <mxCell id="106LG4-2d2CXA7pPxhtT-99" value="1" style="edgeLabel;html=1;align=center;verticalAlign=middle;resizable=0;points=[];fontSize=18;fontStyle=1" parent="106LG4-2d2CXA7pPxhtT-63" vertex="1" connectable="0">
          <mxGeometry x="0.0109" y="-2" relative="1" as="geometry">
            <mxPoint y="1" as="offset" />
          </mxGeometry>
        </mxCell>
        <mxCell id="106LG4-2d2CXA7pPxhtT-64" value="" style="endArrow=none;html=1;rounded=0;exitX=0.5;exitY=1;exitDx=0;exitDy=0;entryX=0;entryY=0;entryDx=0;entryDy=0;fontSize=13;fontStyle=1" parent="1" source="106LG4-2d2CXA7pPxhtT-53" target="4sxGNiX7ziTckChL0p4E-4" edge="1">
          <mxGeometry relative="1" as="geometry">
            <mxPoint x="-420" y="30" as="sourcePoint" />
            <mxPoint x="-260" y="30" as="targetPoint" />
          </mxGeometry>
        </mxCell>
        <mxCell id="106LG4-2d2CXA7pPxhtT-65" value="" style="endArrow=none;html=1;rounded=0;exitX=0.5;exitY=1;exitDx=0;exitDy=0;entryX=0.25;entryY=0;entryDx=0;entryDy=0;fontSize=13;fontStyle=1" parent="1" source="106LG4-2d2CXA7pPxhtT-54" target="4sxGNiX7ziTckChL0p4E-4" edge="1">
          <mxGeometry relative="1" as="geometry">
            <mxPoint x="-390" y="30" as="sourcePoint" />
            <mxPoint x="-230" y="30" as="targetPoint" />
          </mxGeometry>
        </mxCell>
        <mxCell id="106LG4-2d2CXA7pPxhtT-66" value="" style="endArrow=none;html=1;rounded=0;exitX=0.5;exitY=1;exitDx=0;exitDy=0;fontSize=13;fontStyle=1" parent="1" source="106LG4-2d2CXA7pPxhtT-55" target="4sxGNiX7ziTckChL0p4E-4" edge="1">
          <mxGeometry relative="1" as="geometry">
            <mxPoint x="-390" y="20" as="sourcePoint" />
            <mxPoint x="-230" y="20" as="targetPoint" />
          </mxGeometry>
        </mxCell>
        <mxCell id="106LG4-2d2CXA7pPxhtT-67" value="" style="endArrow=none;html=1;rounded=0;exitX=0.75;exitY=0;exitDx=0;exitDy=0;entryX=0.5;entryY=1;entryDx=0;entryDy=0;fontSize=13;fontStyle=1" parent="1" source="4sxGNiX7ziTckChL0p4E-4" target="106LG4-2d2CXA7pPxhtT-56" edge="1">
          <mxGeometry relative="1" as="geometry">
            <mxPoint x="-340" y="20" as="sourcePoint" />
            <mxPoint x="-180" y="20" as="targetPoint" />
          </mxGeometry>
        </mxCell>
        <mxCell id="106LG4-2d2CXA7pPxhtT-68" value="" style="endArrow=none;html=1;rounded=0;exitX=1;exitY=0;exitDx=0;exitDy=0;entryX=0.5;entryY=1;entryDx=0;entryDy=0;fontSize=13;fontStyle=1" parent="1" source="4sxGNiX7ziTckChL0p4E-4" target="106LG4-2d2CXA7pPxhtT-58" edge="1">
          <mxGeometry relative="1" as="geometry">
            <mxPoint x="-260" y="10" as="sourcePoint" />
            <mxPoint x="-100" y="10" as="targetPoint" />
          </mxGeometry>
        </mxCell>
        <mxCell id="106LG4-2d2CXA7pPxhtT-69" value="" style="endArrow=none;html=1;rounded=0;exitX=0.5;exitY=1;exitDx=0;exitDy=0;entryX=0.5;entryY=0;entryDx=0;entryDy=0;fontSize=13;fontStyle=1;shape=link" parent="1" source="4sxGNiX7ziTckChL0p4E-4" target="106LG4-2d2CXA7pPxhtT-51" edge="1">
          <mxGeometry relative="1" as="geometry">
            <mxPoint x="-280" y="170" as="sourcePoint" />
            <mxPoint x="-120" y="170" as="targetPoint" />
          </mxGeometry>
        </mxCell>
        <mxCell id="106LG4-2d2CXA7pPxhtT-103" value="1" style="edgeLabel;html=1;align=center;verticalAlign=middle;resizable=0;points=[];fontSize=18;fontStyle=1;shape=link" parent="106LG4-2d2CXA7pPxhtT-69" vertex="1" connectable="0">
          <mxGeometry x="0.0395" y="2" relative="1" as="geometry">
            <mxPoint y="1" as="offset" />
          </mxGeometry>
        </mxCell>
        <mxCell id="e_Lifs56XzSt3QYOcrR2-1" value="M" style="edgeLabel;html=1;align=center;verticalAlign=middle;resizable=0;points=[];fontSize=18;fontStyle=1" parent="106LG4-2d2CXA7pPxhtT-69" vertex="1" connectable="0">
          <mxGeometry x="0.0286" y="2" relative="1" as="geometry">
            <mxPoint as="offset" />
          </mxGeometry>
        </mxCell>
        <mxCell id="106LG4-2d2CXA7pPxhtT-70" value="" style="endArrow=none;html=1;rounded=0;exitX=0.5;exitY=0;exitDx=0;exitDy=0;entryX=0.5;entryY=1;entryDx=0;entryDy=0;fontSize=13;fontStyle=1" parent="1" source="4sxGNiX7ziTckChL0p4E-3" target="106LG4-2d2CXA7pPxhtT-51" edge="1">
          <mxGeometry relative="1" as="geometry">
            <mxPoint x="-280" y="280" as="sourcePoint" />
            <mxPoint x="-120" y="280" as="targetPoint" />
          </mxGeometry>
        </mxCell>
        <mxCell id="106LG4-2d2CXA7pPxhtT-106" value="N" style="edgeLabel;html=1;align=center;verticalAlign=middle;resizable=0;points=[];fontSize=18;fontStyle=1" parent="106LG4-2d2CXA7pPxhtT-70" vertex="1" connectable="0">
          <mxGeometry x="0.1238" relative="1" as="geometry">
            <mxPoint y="1" as="offset" />
          </mxGeometry>
        </mxCell>
        <mxCell id="106LG4-2d2CXA7pPxhtT-71" value="&lt;font style=&quot;font-size: 13px;&quot;&gt;&lt;b&gt;Belongs&lt;/b&gt;&lt;/font&gt;" style="shape=rhombus;perimeter=rhombusPerimeter;whiteSpace=wrap;html=1;align=center;" parent="1" vertex="1">
          <mxGeometry x="240" y="60" width="120" height="60" as="geometry" />
        </mxCell>
        <mxCell id="106LG4-2d2CXA7pPxhtT-72" value="" style="endArrow=none;html=1;rounded=0;exitX=0.5;exitY=0;exitDx=0;exitDy=0;entryX=0.5;entryY=1;entryDx=0;entryDy=0;fontSize=12;" parent="1" source="106LG4-2d2CXA7pPxhtT-71" target="4sxGNiX7ziTckChL0p4E-1" edge="1">
          <mxGeometry relative="1" as="geometry">
            <mxPoint x="470" y="10" as="sourcePoint" />
            <mxPoint x="630" y="10" as="targetPoint" />
          </mxGeometry>
        </mxCell>
        <mxCell id="106LG4-2d2CXA7pPxhtT-110" value="1" style="edgeLabel;html=1;align=center;verticalAlign=middle;resizable=0;points=[];fontSize=18;fontStyle=1" parent="106LG4-2d2CXA7pPxhtT-72" vertex="1" connectable="0">
          <mxGeometry x="-0.1524" y="-2" relative="1" as="geometry">
            <mxPoint y="1" as="offset" />
          </mxGeometry>
        </mxCell>
        <mxCell id="106LG4-2d2CXA7pPxhtT-17" value="" style="endArrow=none;html=1;rounded=0;exitX=1;exitY=0.5;exitDx=0;exitDy=0;fontSize=13;fontStyle=1;" parent="1" source="106LG4-2d2CXA7pPxhtT-11" edge="1">
          <mxGeometry relative="1" as="geometry">
            <mxPoint x="-710" y="-70" as="sourcePoint" />
            <mxPoint x="-580" y="-120" as="targetPoint" />
          </mxGeometry>
        </mxCell>
        <mxCell id="106LG4-2d2CXA7pPxhtT-77" value="" style="endArrow=none;html=1;rounded=0;entryX=0.5;entryY=1;entryDx=0;entryDy=0;exitX=0.5;exitY=0;exitDx=0;exitDy=0;" parent="1" source="4sxGNiX7ziTckChL0p4E-5" target="106LG4-2d2CXA7pPxhtT-74" edge="1">
          <mxGeometry relative="1" as="geometry">
            <mxPoint x="-980" y="20" as="sourcePoint" />
            <mxPoint x="-820" y="20" as="targetPoint" />
          </mxGeometry>
        </mxCell>
        <mxCell id="106LG4-2d2CXA7pPxhtT-119" value="1" style="edgeLabel;html=1;align=center;verticalAlign=middle;resizable=0;points=[];fontSize=18;fontStyle=1" parent="106LG4-2d2CXA7pPxhtT-77" vertex="1" connectable="0">
          <mxGeometry x="-0.0891" relative="1" as="geometry">
            <mxPoint y="1" as="offset" />
          </mxGeometry>
        </mxCell>
        <mxCell id="106LG4-2d2CXA7pPxhtT-9" value="first name" style="ellipse;whiteSpace=wrap;html=1;align=center;fontSize=13;fontStyle=1" parent="1" vertex="1">
          <mxGeometry x="-640" y="-380" width="100" height="40" as="geometry" />
        </mxCell>
        <mxCell id="106LG4-2d2CXA7pPxhtT-10" value="last name" style="ellipse;whiteSpace=wrap;html=1;align=center;fontSize=13;fontStyle=1" parent="1" vertex="1">
          <mxGeometry x="-500" y="-380" width="100" height="40" as="geometry" />
        </mxCell>
        <mxCell id="106LG4-2d2CXA7pPxhtT-25" value="" style="endArrow=none;html=1;rounded=0;exitX=0.5;exitY=1;exitDx=0;exitDy=0;entryX=0.5;entryY=0;entryDx=0;entryDy=0;fontSize=13;fontStyle=1" parent="1" source="106LG4-2d2CXA7pPxhtT-9" target="106LG4-2d2CXA7pPxhtT-2" edge="1">
          <mxGeometry relative="1" as="geometry">
            <mxPoint x="-220" y="-180" as="sourcePoint" />
            <mxPoint x="-60" y="-180" as="targetPoint" />
          </mxGeometry>
        </mxCell>
        <mxCell id="106LG4-2d2CXA7pPxhtT-26" value="" style="endArrow=none;html=1;rounded=0;exitX=0.5;exitY=0;exitDx=0;exitDy=0;entryX=0.5;entryY=1;entryDx=0;entryDy=0;fontSize=13;fontStyle=1" parent="1" source="106LG4-2d2CXA7pPxhtT-2" target="106LG4-2d2CXA7pPxhtT-10" edge="1">
          <mxGeometry relative="1" as="geometry">
            <mxPoint x="-470" y="-240" as="sourcePoint" />
            <mxPoint x="-310" y="-240" as="targetPoint" />
          </mxGeometry>
        </mxCell>
        <mxCell id="4sxGNiX7ziTckChL0p4E-31" value="" style="endArrow=none;html=1;rounded=0;entryX=0.5;entryY=1;entryDx=0;entryDy=0;exitX=0.5;exitY=0;exitDx=0;exitDy=0;fontSize=13;fontStyle=1" parent="1" source="bqqFAHsnTS03EGey6QiC-1" target="4sxGNiX7ziTckChL0p4E-12" edge="1">
          <mxGeometry relative="1" as="geometry">
            <mxPoint x="-205" y="-120" as="sourcePoint" />
            <mxPoint x="-285" y="-280" as="targetPoint" />
          </mxGeometry>
        </mxCell>
        <mxCell id="106LG4-2d2CXA7pPxhtT-79" value="location" style="ellipse;whiteSpace=wrap;html=1;align=center;fontSize=13;fontStyle=1" parent="1" vertex="1">
          <mxGeometry x="-820" y="560" width="100" height="40" as="geometry" />
        </mxCell>
        <mxCell id="106LG4-2d2CXA7pPxhtT-80" value="room_id" style="ellipse;whiteSpace=wrap;html=1;align=center;fontStyle=5;fontSize=13;" parent="1" vertex="1">
          <mxGeometry x="-950" y="560" width="100" height="40" as="geometry" />
        </mxCell>
        <mxCell id="106LG4-2d2CXA7pPxhtT-81" value="room type" style="ellipse;whiteSpace=wrap;html=1;align=center;fontSize=13;fontStyle=1" parent="1" vertex="1">
          <mxGeometry x="-690" y="560" width="100" height="40" as="geometry" />
        </mxCell>
        <mxCell id="106LG4-2d2CXA7pPxhtT-82" value="start time" style="ellipse;whiteSpace=wrap;html=1;align=center;fontSize=13;fontStyle=1" parent="1" vertex="1">
          <mxGeometry x="-980" y="-140" width="100" height="40" as="geometry" />
        </mxCell>
        <mxCell id="106LG4-2d2CXA7pPxhtT-83" value="end time" style="ellipse;whiteSpace=wrap;html=1;align=center;fontSize=13;fontStyle=1" parent="1" vertex="1">
          <mxGeometry x="-980" y="-90" width="100" height="40" as="geometry" />
        </mxCell>
        <mxCell id="106LG4-2d2CXA7pPxhtT-84" value="" style="endArrow=none;html=1;rounded=0;exitX=1;exitY=0.5;exitDx=0;exitDy=0;entryX=0;entryY=0.5;entryDx=0;entryDy=0;" parent="1" source="106LG4-2d2CXA7pPxhtT-82" target="106LG4-2d2CXA7pPxhtT-74" edge="1">
          <mxGeometry relative="1" as="geometry">
            <mxPoint x="-870" y="-10" as="sourcePoint" />
            <mxPoint x="-710" y="-10" as="targetPoint" />
          </mxGeometry>
        </mxCell>
        <mxCell id="106LG4-2d2CXA7pPxhtT-85" value="" style="endArrow=none;html=1;rounded=0;exitX=1;exitY=0.5;exitDx=0;exitDy=0;entryX=0;entryY=0.5;entryDx=0;entryDy=0;" parent="1" source="106LG4-2d2CXA7pPxhtT-83" target="106LG4-2d2CXA7pPxhtT-74" edge="1">
          <mxGeometry relative="1" as="geometry">
            <mxPoint x="-830" y="-30" as="sourcePoint" />
            <mxPoint x="-670" y="-30" as="targetPoint" />
          </mxGeometry>
        </mxCell>
        <mxCell id="106LG4-2d2CXA7pPxhtT-86" value="" style="endArrow=none;html=1;rounded=0;exitX=0.5;exitY=0;exitDx=0;exitDy=0;entryX=0.5;entryY=1;entryDx=0;entryDy=0;" parent="1" source="106LG4-2d2CXA7pPxhtT-80" target="4sxGNiX7ziTckChL0p4E-5" edge="1">
          <mxGeometry relative="1" as="geometry">
            <mxPoint x="-1020" y="480" as="sourcePoint" />
            <mxPoint x="-860" y="480" as="targetPoint" />
          </mxGeometry>
        </mxCell>
        <mxCell id="106LG4-2d2CXA7pPxhtT-87" value="" style="endArrow=none;html=1;rounded=0;exitX=0.5;exitY=0;exitDx=0;exitDy=0;entryX=0.5;entryY=1;entryDx=0;entryDy=0;" parent="1" source="106LG4-2d2CXA7pPxhtT-79" target="4sxGNiX7ziTckChL0p4E-5" edge="1">
          <mxGeometry relative="1" as="geometry">
            <mxPoint x="-800" y="640" as="sourcePoint" />
            <mxPoint x="-640" y="640" as="targetPoint" />
          </mxGeometry>
        </mxCell>
        <mxCell id="106LG4-2d2CXA7pPxhtT-88" value="" style="endArrow=none;html=1;rounded=0;exitX=0.5;exitY=0;exitDx=0;exitDy=0;entryX=0.5;entryY=1;entryDx=0;entryDy=0;" parent="1" source="106LG4-2d2CXA7pPxhtT-81" target="4sxGNiX7ziTckChL0p4E-5" edge="1">
          <mxGeometry relative="1" as="geometry">
            <mxPoint x="-670" y="630" as="sourcePoint" />
            <mxPoint x="-510" y="630" as="targetPoint" />
          </mxGeometry>
        </mxCell>
        <mxCell id="106LG4-2d2CXA7pPxhtT-90" value="equipment_id" style="ellipse;whiteSpace=wrap;html=1;align=center;fontStyle=5;fontSize=13;" parent="1" vertex="1">
          <mxGeometry x="-182.5" y="150" width="100" height="40" as="geometry" />
        </mxCell>
        <mxCell id="106LG4-2d2CXA7pPxhtT-91" value="name" style="ellipse;whiteSpace=wrap;html=1;align=center;fontSize=13;fontStyle=1" parent="1" vertex="1">
          <mxGeometry x="-50" y="150" width="100" height="40" as="geometry" />
        </mxCell>
        <mxCell id="106LG4-2d2CXA7pPxhtT-92" value="type" style="ellipse;whiteSpace=wrap;html=1;align=center;fontSize=13;fontStyle=1" parent="1" vertex="1">
          <mxGeometry x="90" y="150" width="100" height="40" as="geometry" />
        </mxCell>
        <mxCell id="106LG4-2d2CXA7pPxhtT-93" value="description" style="ellipse;whiteSpace=wrap;html=1;align=center;fontSize=13;fontStyle=1" parent="1" vertex="1">
          <mxGeometry x="230" y="150" width="100" height="40" as="geometry" />
        </mxCell>
        <mxCell id="106LG4-2d2CXA7pPxhtT-94" value="" style="endArrow=none;html=1;rounded=0;exitX=0.5;exitY=0;exitDx=0;exitDy=0;entryX=0.5;entryY=1;entryDx=0;entryDy=0;" parent="1" source="106LG4-2d2CXA7pPxhtT-90" target="4sxGNiX7ziTckChL0p4E-6" edge="1">
          <mxGeometry relative="1" as="geometry">
            <mxPoint x="-100" y="120" as="sourcePoint" />
            <mxPoint x="60" y="120" as="targetPoint" />
          </mxGeometry>
        </mxCell>
        <mxCell id="106LG4-2d2CXA7pPxhtT-95" value="" style="endArrow=none;html=1;rounded=0;exitX=0.5;exitY=0;exitDx=0;exitDy=0;entryX=0.5;entryY=1;entryDx=0;entryDy=0;" parent="1" source="106LG4-2d2CXA7pPxhtT-91" target="4sxGNiX7ziTckChL0p4E-6" edge="1">
          <mxGeometry relative="1" as="geometry">
            <mxPoint x="-10" y="220" as="sourcePoint" />
            <mxPoint x="150" y="220" as="targetPoint" />
          </mxGeometry>
        </mxCell>
        <mxCell id="106LG4-2d2CXA7pPxhtT-96" value="" style="endArrow=none;html=1;rounded=0;exitX=0.5;exitY=0;exitDx=0;exitDy=0;entryX=0.5;entryY=1;entryDx=0;entryDy=0;" parent="1" source="106LG4-2d2CXA7pPxhtT-92" target="4sxGNiX7ziTckChL0p4E-6" edge="1">
          <mxGeometry relative="1" as="geometry">
            <mxPoint x="110" y="230" as="sourcePoint" />
            <mxPoint x="270" y="230" as="targetPoint" />
          </mxGeometry>
        </mxCell>
        <mxCell id="106LG4-2d2CXA7pPxhtT-97" value="" style="endArrow=none;html=1;rounded=0;exitX=0.5;exitY=0;exitDx=0;exitDy=0;entryX=0.5;entryY=1;entryDx=0;entryDy=0;" parent="1" source="106LG4-2d2CXA7pPxhtT-93" target="4sxGNiX7ziTckChL0p4E-6" edge="1">
          <mxGeometry relative="1" as="geometry">
            <mxPoint x="170" y="250" as="sourcePoint" />
            <mxPoint x="330" y="250" as="targetPoint" />
          </mxGeometry>
        </mxCell>
        <mxCell id="106LG4-2d2CXA7pPxhtT-98" value="" style="endArrow=none;html=1;rounded=0;exitX=1;exitY=0.5;exitDx=0;exitDy=0;entryX=0;entryY=0.5;entryDx=0;entryDy=0;" parent="1" source="4sxGNiX7ziTckChL0p4E-6" target="106LG4-2d2CXA7pPxhtT-71" edge="1">
          <mxGeometry relative="1" as="geometry">
            <mxPoint x="90" y="30" as="sourcePoint" />
            <mxPoint x="250" y="30" as="targetPoint" />
          </mxGeometry>
        </mxCell>
        <mxCell id="106LG4-2d2CXA7pPxhtT-111" value="&lt;font style=&quot;font-size: 18px;&quot;&gt;&lt;b&gt;N&lt;/b&gt;&lt;/font&gt;" style="edgeLabel;html=1;align=center;verticalAlign=middle;resizable=0;points=[];" parent="106LG4-2d2CXA7pPxhtT-98" vertex="1" connectable="0">
          <mxGeometry x="-0.019" y="1" relative="1" as="geometry">
            <mxPoint as="offset" />
          </mxGeometry>
        </mxCell>
        <mxCell id="106LG4-2d2CXA7pPxhtT-107" value="Belongs&amp;nbsp;" style="shape=rhombus;perimeter=rhombusPerimeter;whiteSpace=wrap;html=1;align=center;fontSize=13;fontStyle=1;margin=3;double=1;whiteSpace=wrap;html=1;align=center;" parent="1" vertex="1">
          <mxGeometry x="-220" y="480" width="120" height="60" as="geometry" />
        </mxCell>
        <mxCell id="106LG4-2d2CXA7pPxhtT-109" value="" style="endArrow=none;html=1;rounded=0;exitX=1;exitY=0.5;exitDx=0;exitDy=0;entryX=0;entryY=0.5;entryDx=0;entryDy=0;" parent="1" source="4sxGNiX7ziTckChL0p4E-5" target="106LG4-2d2CXA7pPxhtT-107" edge="1">
          <mxGeometry relative="1" as="geometry">
            <mxPoint x="-650" y="510" as="sourcePoint" />
            <mxPoint x="-490" y="510" as="targetPoint" />
          </mxGeometry>
        </mxCell>
        <mxCell id="106LG4-2d2CXA7pPxhtT-115" value="N" style="edgeLabel;html=1;align=center;verticalAlign=middle;resizable=0;points=[];fontSize=18;fontStyle=1" parent="106LG4-2d2CXA7pPxhtT-109" vertex="1" connectable="0">
          <mxGeometry x="0.0469" y="2" relative="1" as="geometry">
            <mxPoint as="offset" />
          </mxGeometry>
        </mxCell>
        <mxCell id="106LG4-2d2CXA7pPxhtT-113" value="" style="endArrow=none;html=1;rounded=0;exitX=0.5;exitY=0;exitDx=0;exitDy=0;entryX=0.5;entryY=1;entryDx=0;entryDy=0;" parent="1" target="106LG4-2d2CXA7pPxhtT-107" edge="1">
          <mxGeometry relative="1" as="geometry">
            <mxPoint x="-160" y="590" as="sourcePoint" />
            <mxPoint x="160" y="600" as="targetPoint" />
          </mxGeometry>
        </mxCell>
        <mxCell id="106LG4-2d2CXA7pPxhtT-122" value="" style="shape=link;html=1;rounded=0;exitX=1;exitY=0.5;exitDx=0;exitDy=0;entryX=1;entryY=0.5;entryDx=0;entryDy=0;" parent="1" source="106LG4-2d2CXA7pPxhtT-107" target="4sxGNiX7ziTckChL0p4E-1" edge="1">
          <mxGeometry relative="1" as="geometry">
            <mxPoint x="150" y="520" as="sourcePoint" />
            <mxPoint x="370" y="-100" as="targetPoint" />
            <Array as="points">
              <mxPoint x="420" y="510" />
              <mxPoint x="420" y="-100" />
            </Array>
          </mxGeometry>
        </mxCell>
        <mxCell id="106LG4-2d2CXA7pPxhtT-124" value="1" style="edgeLabel;html=1;align=center;verticalAlign=middle;resizable=0;points=[];fontSize=18;fontStyle=1" parent="106LG4-2d2CXA7pPxhtT-122" vertex="1" connectable="0">
          <mxGeometry x="-0.5511" y="1" relative="1" as="geometry">
            <mxPoint x="-1" as="offset" />
          </mxGeometry>
        </mxCell>
        <mxCell id="106LG4-2d2CXA7pPxhtT-125" value="&lt;font style=&quot;font-size: 13px;&quot;&gt;&lt;b&gt;available rooms&lt;/b&gt;&lt;/font&gt;" style="ellipse;whiteSpace=wrap;html=1;align=center;dashed=1;" parent="1" vertex="1">
          <mxGeometry x="-210" y="590" width="100" height="40" as="geometry" />
        </mxCell>
      </root>
    </mxGraphModel>
  </diagram>
  <diagram id="3WFttyHuqj2JAXfOhHap" name="第 2 页">
    <mxGraphModel dx="2875" dy="823" grid="1" gridSize="10" guides="1" tooltips="1" connect="1" arrows="1" fold="1" page="1" pageScale="1" pageWidth="827" pageHeight="1169" math="0" shadow="0">
      <root>
        <mxCell id="0" />
        <mxCell id="1" parent="0" />
        <mxCell id="oNnKqaoHycKzKOCcD2Z0-1" value="&lt;u&gt;A1&lt;/u&gt;" style="whiteSpace=wrap;html=1;align=center;" parent="1" vertex="1">
          <mxGeometry x="-1060" y="820" width="100" height="40" as="geometry" />
        </mxCell>
        <mxCell id="oNnKqaoHycKzKOCcD2Z0-2" value="A3" style="whiteSpace=wrap;html=1;align=center;" parent="1" vertex="1">
          <mxGeometry x="-960" y="820" width="100" height="40" as="geometry" />
        </mxCell>
        <mxCell id="oNnKqaoHycKzKOCcD2Z0-3" value="E1" style="text;strokeColor=none;fillColor=none;spacingLeft=4;spacingRight=4;overflow=hidden;rotatable=0;points=[[0,0.5],[1,0.5]];portConstraint=eastwest;fontSize=12;whiteSpace=wrap;html=1;" parent="1" vertex="1">
          <mxGeometry x="-1060" y="790" width="40" height="30" as="geometry" />
        </mxCell>
        <mxCell id="oNnKqaoHycKzKOCcD2Z0-4" value="&lt;u&gt;A4&lt;/u&gt;" style="whiteSpace=wrap;html=1;align=center;" parent="1" vertex="1">
          <mxGeometry x="-1060" y="920" width="100" height="40" as="geometry" />
        </mxCell>
        <mxCell id="oNnKqaoHycKzKOCcD2Z0-6" value="E2" style="text;strokeColor=none;fillColor=none;spacingLeft=4;spacingRight=4;overflow=hidden;rotatable=0;points=[[0,0.5],[1,0.5]];portConstraint=eastwest;fontSize=12;whiteSpace=wrap;html=1;" parent="1" vertex="1">
          <mxGeometry x="-1060" y="890" width="40" height="30" as="geometry" />
        </mxCell>
        <mxCell id="oNnKqaoHycKzKOCcD2Z0-7" style="edgeStyle=orthogonalEdgeStyle;rounded=0;orthogonalLoop=1;jettySize=auto;html=1;exitX=0.5;exitY=0;exitDx=0;exitDy=0;entryX=0.5;entryY=1;entryDx=0;entryDy=0;" parent="1" source="oNnKqaoHycKzKOCcD2Z0-8" target="um-o1BRq3glVjGhwi-4b-1" edge="1">
          <mxGeometry relative="1" as="geometry">
            <Array as="points">
              <mxPoint x="-1010" y="1100" />
              <mxPoint x="-510" y="1100" />
            </Array>
          </mxGeometry>
        </mxCell>
        <mxCell id="oNnKqaoHycKzKOCcD2Z0-8" value="&lt;u&gt;A11&lt;/u&gt;" style="whiteSpace=wrap;html=1;align=center;" parent="1" vertex="1">
          <mxGeometry x="-1060" y="1130" width="100" height="40" as="geometry" />
        </mxCell>
        <mxCell id="oNnKqaoHycKzKOCcD2Z0-9" value="A12" style="whiteSpace=wrap;html=1;align=center;" parent="1" vertex="1">
          <mxGeometry x="-960" y="1130" width="100" height="40" as="geometry" />
        </mxCell>
        <mxCell id="oNnKqaoHycKzKOCcD2Z0-10" value="E4" style="text;strokeColor=none;fillColor=none;spacingLeft=4;spacingRight=4;overflow=hidden;rotatable=0;points=[[0,0.5],[1,0.5]];portConstraint=eastwest;fontSize=12;whiteSpace=wrap;html=1;" parent="1" vertex="1">
          <mxGeometry x="-1060" y="1100" width="40" height="30" as="geometry" />
        </mxCell>
        <mxCell id="oNnKqaoHycKzKOCcD2Z0-11" value="&lt;u&gt;A13&lt;/u&gt;" style="whiteSpace=wrap;html=1;align=center;" parent="1" vertex="1">
          <mxGeometry x="-1060" y="1220" width="100" height="40" as="geometry" />
        </mxCell>
        <mxCell id="oNnKqaoHycKzKOCcD2Z0-12" value="A14" style="whiteSpace=wrap;html=1;align=center;" parent="1" vertex="1">
          <mxGeometry x="-960" y="1220" width="100" height="40" as="geometry" />
        </mxCell>
        <mxCell id="oNnKqaoHycKzKOCcD2Z0-13" value="E5" style="text;strokeColor=none;fillColor=none;spacingLeft=4;spacingRight=4;overflow=hidden;rotatable=0;points=[[0,0.5],[1,0.5]];portConstraint=eastwest;fontSize=12;whiteSpace=wrap;html=1;" parent="1" vertex="1">
          <mxGeometry x="-1060" y="1190" width="40" height="30" as="geometry" />
        </mxCell>
        <mxCell id="oNnKqaoHycKzKOCcD2Z0-14" style="edgeStyle=orthogonalEdgeStyle;rounded=0;orthogonalLoop=1;jettySize=auto;html=1;exitX=0;exitY=0.5;exitDx=0;exitDy=0;entryX=0;entryY=0.5;entryDx=0;entryDy=0;" parent="1" source="oNnKqaoHycKzKOCcD2Z0-15" target="oNnKqaoHycKzKOCcD2Z0-1" edge="1">
          <mxGeometry relative="1" as="geometry">
            <Array as="points">
              <mxPoint x="-1110" y="1050" />
              <mxPoint x="-1110" y="840" />
            </Array>
          </mxGeometry>
        </mxCell>
        <mxCell id="oNnKqaoHycKzKOCcD2Z0-15" value="A1" style="whiteSpace=wrap;html=1;align=center;fontStyle=0" parent="1" vertex="1">
          <mxGeometry x="-1060" y="1030" width="100" height="40" as="geometry" />
        </mxCell>
        <mxCell id="oNnKqaoHycKzKOCcD2Z0-16" value="A7" style="whiteSpace=wrap;html=1;align=center;fontStyle=0" parent="1" vertex="1">
          <mxGeometry x="-960" y="1030" width="100" height="40" as="geometry" />
        </mxCell>
        <mxCell id="oNnKqaoHycKzKOCcD2Z0-17" value="E3" style="text;strokeColor=none;fillColor=none;spacingLeft=4;spacingRight=4;overflow=hidden;rotatable=0;points=[[0,0.5],[1,0.5]];portConstraint=eastwest;fontSize=12;whiteSpace=wrap;html=1;" parent="1" vertex="1">
          <mxGeometry x="-1060" y="1000" width="40" height="30" as="geometry" />
        </mxCell>
        <mxCell id="oNnKqaoHycKzKOCcD2Z0-18" value="A8" style="whiteSpace=wrap;html=1;align=center;" parent="1" vertex="1">
          <mxGeometry x="-860" y="1030" width="100" height="40" as="geometry" />
        </mxCell>
        <mxCell id="oNnKqaoHycKzKOCcD2Z0-19" value="A9" style="whiteSpace=wrap;html=1;align=center;" parent="1" vertex="1">
          <mxGeometry x="-760" y="1030" width="100" height="40" as="geometry" />
        </mxCell>
        <mxCell id="oNnKqaoHycKzKOCcD2Z0-20" value="A10" style="whiteSpace=wrap;html=1;align=center;" parent="1" vertex="1">
          <mxGeometry x="-660" y="1030" width="100" height="40" as="geometry" />
        </mxCell>
        <mxCell id="oNnKqaoHycKzKOCcD2Z0-21" style="edgeStyle=orthogonalEdgeStyle;rounded=0;orthogonalLoop=1;jettySize=auto;html=1;exitX=1;exitY=0.5;exitDx=0;exitDy=0;entryX=0.5;entryY=1;entryDx=0;entryDy=0;" parent="1" source="oNnKqaoHycKzKOCcD2Z0-22" target="oNnKqaoHycKzKOCcD2Z0-4" edge="1">
          <mxGeometry relative="1" as="geometry">
            <Array as="points">
              <mxPoint x="-440" y="1240" />
              <mxPoint x="-440" y="990" />
              <mxPoint x="-1010" y="990" />
            </Array>
          </mxGeometry>
        </mxCell>
        <mxCell id="oNnKqaoHycKzKOCcD2Z0-22" value="A4" style="whiteSpace=wrap;html=1;align=center;" parent="1" vertex="1">
          <mxGeometry x="-860" y="1220" width="100" height="40" as="geometry" />
        </mxCell>
        <mxCell id="oNnKqaoHycKzKOCcD2Z0-23" style="edgeStyle=orthogonalEdgeStyle;rounded=0;orthogonalLoop=1;jettySize=auto;html=1;exitX=0;exitY=0.5;exitDx=0;exitDy=0;entryX=0;entryY=0.75;entryDx=0;entryDy=0;" parent="1" source="oNnKqaoHycKzKOCcD2Z0-24" target="oNnKqaoHycKzKOCcD2Z0-1" edge="1">
          <mxGeometry relative="1" as="geometry">
            <Array as="points">
              <mxPoint x="-1090" y="1330" />
              <mxPoint x="-1090" y="850" />
            </Array>
          </mxGeometry>
        </mxCell>
        <mxCell id="oNnKqaoHycKzKOCcD2Z0-24" value="&lt;span&gt;A1&lt;/span&gt;" style="whiteSpace=wrap;html=1;align=center;fontStyle=0" parent="1" vertex="1">
          <mxGeometry x="-1060" y="1310" width="100" height="40" as="geometry" />
        </mxCell>
        <mxCell id="oNnKqaoHycKzKOCcD2Z0-25" style="edgeStyle=orthogonalEdgeStyle;rounded=0;orthogonalLoop=1;jettySize=auto;html=1;exitX=0.5;exitY=1;exitDx=0;exitDy=0;entryX=0.5;entryY=0;entryDx=0;entryDy=0;" parent="1" source="oNnKqaoHycKzKOCcD2Z0-26" target="oNnKqaoHycKzKOCcD2Z0-4" edge="1">
          <mxGeometry relative="1" as="geometry">
            <Array as="points">
              <mxPoint x="-910" y="1380" />
              <mxPoint x="-420" y="1380" />
              <mxPoint x="-420" y="890" />
              <mxPoint x="-1010" y="890" />
            </Array>
          </mxGeometry>
        </mxCell>
        <mxCell id="oNnKqaoHycKzKOCcD2Z0-26" value="&lt;span&gt;A4&lt;/span&gt;" style="whiteSpace=wrap;html=1;align=center;fontStyle=0" parent="1" vertex="1">
          <mxGeometry x="-960" y="1310" width="100" height="40" as="geometry" />
        </mxCell>
        <mxCell id="oNnKqaoHycKzKOCcD2Z0-27" value="R1" style="text;strokeColor=none;fillColor=none;spacingLeft=4;spacingRight=4;overflow=hidden;rotatable=0;points=[[0,0.5],[1,0.5]];portConstraint=eastwest;fontSize=12;whiteSpace=wrap;html=1;" parent="1" vertex="1">
          <mxGeometry x="-1060" y="1280" width="40" height="30" as="geometry" />
        </mxCell>
        <mxCell id="oNnKqaoHycKzKOCcD2Z0-28" value="A15" style="whiteSpace=wrap;html=1;align=center;" parent="1" vertex="1">
          <mxGeometry x="-860" y="1310" width="100" height="40" as="geometry" />
        </mxCell>
        <mxCell id="oNnKqaoHycKzKOCcD2Z0-29" style="edgeStyle=orthogonalEdgeStyle;rounded=0;orthogonalLoop=1;jettySize=auto;html=1;exitX=0;exitY=0.5;exitDx=0;exitDy=0;entryX=0;entryY=0.25;entryDx=0;entryDy=0;" parent="1" source="oNnKqaoHycKzKOCcD2Z0-30" target="oNnKqaoHycKzKOCcD2Z0-1" edge="1">
          <mxGeometry relative="1" as="geometry">
            <Array as="points">
              <mxPoint x="-1130" y="1440" />
              <mxPoint x="-1130" y="830" />
            </Array>
          </mxGeometry>
        </mxCell>
        <mxCell id="oNnKqaoHycKzKOCcD2Z0-30" value="&lt;span&gt;A1&lt;/span&gt;" style="whiteSpace=wrap;html=1;align=center;fontStyle=0" parent="1" vertex="1">
          <mxGeometry x="-1060" y="1420" width="100" height="40" as="geometry" />
        </mxCell>
        <mxCell id="oNnKqaoHycKzKOCcD2Z0-31" value="E1_A2" style="text;strokeColor=none;fillColor=none;spacingLeft=4;spacingRight=4;overflow=hidden;rotatable=0;points=[[0,0.5],[1,0.5]];portConstraint=eastwest;fontSize=12;whiteSpace=wrap;html=1;" parent="1" vertex="1">
          <mxGeometry x="-1060" y="1390" width="60" height="30" as="geometry" />
        </mxCell>
        <mxCell id="oNnKqaoHycKzKOCcD2Z0-32" style="edgeStyle=orthogonalEdgeStyle;rounded=0;orthogonalLoop=1;jettySize=auto;html=1;exitX=0;exitY=0.5;exitDx=0;exitDy=0;entryX=0;entryY=0.5;entryDx=0;entryDy=0;" parent="1" source="oNnKqaoHycKzKOCcD2Z0-33" target="oNnKqaoHycKzKOCcD2Z0-4" edge="1">
          <mxGeometry relative="1" as="geometry">
            <Array as="points">
              <mxPoint x="-1150" y="1540" />
              <mxPoint x="-1150" y="940" />
            </Array>
          </mxGeometry>
        </mxCell>
        <mxCell id="oNnKqaoHycKzKOCcD2Z0-33" value="&lt;span&gt;A4&lt;/span&gt;" style="whiteSpace=wrap;html=1;align=center;fontStyle=0" parent="1" vertex="1">
          <mxGeometry x="-1060" y="1520" width="100" height="40" as="geometry" />
        </mxCell>
        <mxCell id="oNnKqaoHycKzKOCcD2Z0-34" style="edgeStyle=orthogonalEdgeStyle;rounded=0;orthogonalLoop=1;jettySize=auto;html=1;exitX=0.5;exitY=0;exitDx=0;exitDy=0;entryX=0;entryY=0.5;entryDx=0;entryDy=0;" parent="1" source="oNnKqaoHycKzKOCcD2Z0-35" target="oNnKqaoHycKzKOCcD2Z0-8" edge="1">
          <mxGeometry relative="1" as="geometry">
            <Array as="points">
              <mxPoint x="-910" y="1490" />
              <mxPoint x="-1110" y="1490" />
              <mxPoint x="-1110" y="1150" />
            </Array>
          </mxGeometry>
        </mxCell>
        <mxCell id="oNnKqaoHycKzKOCcD2Z0-35" value="&lt;span&gt;A11&lt;/span&gt;" style="whiteSpace=wrap;html=1;align=center;fontStyle=0" parent="1" vertex="1">
          <mxGeometry x="-960" y="1520" width="100" height="40" as="geometry" />
        </mxCell>
        <mxCell id="oNnKqaoHycKzKOCcD2Z0-36" value="R4" style="text;strokeColor=none;fillColor=none;spacingLeft=4;spacingRight=4;overflow=hidden;rotatable=0;points=[[0,0.5],[1,0.5]];portConstraint=eastwest;fontSize=12;whiteSpace=wrap;html=1;" parent="1" vertex="1">
          <mxGeometry x="-1060" y="1490" width="40" height="30" as="geometry" />
        </mxCell>
        <mxCell id="oNnKqaoHycKzKOCcD2Z0-37" value="&lt;span&gt;A2&lt;/span&gt;" style="whiteSpace=wrap;html=1;align=center;fontStyle=0" parent="1" vertex="1">
          <mxGeometry x="-960" y="1420" width="100" height="40" as="geometry" />
        </mxCell>
        <mxCell id="oNnKqaoHycKzKOCcD2Z0-38" value="" style="endArrow=none;html=1;rounded=0;fontStyle=1" parent="1" edge="1">
          <mxGeometry relative="1" as="geometry">
            <mxPoint x="-1040" y="1060" as="sourcePoint" />
            <mxPoint x="-880" y="1060" as="targetPoint" />
          </mxGeometry>
        </mxCell>
        <mxCell id="oNnKqaoHycKzKOCcD2Z0-39" value="" style="endArrow=none;html=1;rounded=0;" parent="1" edge="1">
          <mxGeometry relative="1" as="geometry">
            <mxPoint x="-1040" y="1550" as="sourcePoint" />
            <mxPoint x="-880" y="1550" as="targetPoint" />
          </mxGeometry>
        </mxCell>
        <mxCell id="oNnKqaoHycKzKOCcD2Z0-40" value="" style="endArrow=none;html=1;rounded=0;" parent="1" edge="1">
          <mxGeometry relative="1" as="geometry">
            <mxPoint x="-1040" y="1450" as="sourcePoint" />
            <mxPoint x="-880" y="1450" as="targetPoint" />
          </mxGeometry>
        </mxCell>
        <mxCell id="oNnKqaoHycKzKOCcD2Z0-41" value="A6" style="whiteSpace=wrap;html=1;align=center;" parent="1" vertex="1">
          <mxGeometry x="-960" y="920" width="100" height="40" as="geometry" />
        </mxCell>
        <mxCell id="oNnKqaoHycKzKOCcD2Z0-42" value="" style="endArrow=none;html=1;rounded=0;" parent="1" edge="1">
          <mxGeometry relative="1" as="geometry">
            <mxPoint x="-1040" y="1340" as="sourcePoint" />
            <mxPoint x="-880" y="1340" as="targetPoint" />
          </mxGeometry>
        </mxCell>
        <mxCell id="um-o1BRq3glVjGhwi-4b-1" value="A11" style="whiteSpace=wrap;html=1;align=center;" vertex="1" parent="1">
          <mxGeometry x="-560" y="1030" width="100" height="40" as="geometry" />
        </mxCell>
      </root>
    </mxGraphModel>
  </diagram>
</mxfile>
